<svg width="180" height="180" viewBox="0 0 180 180" fill="none" xmlns="http://www.w3.org/2000/svg">
  <!-- Background -->
  <rect width="180" height="180" rx="40" fill="#000000"/>
  
  <!-- Bug body -->
  <ellipse cx="90" cy="105" rx="45" ry="55" fill="#ef4444" stroke="#dc2626" stroke-width="3"/>
  
  <!-- Bug head -->
  <circle cx="90" cy="50" r="22" fill="#ef4444" stroke="#dc2626" stroke-width="3"/>
  
  <!-- Bug eyes -->
  <circle cx="82" cy="45" r="5" fill="#ffffff"/>
  <circle cx="98" cy="45" r="5" fill="#ffffff"/>
  
  <!-- Bug antennae -->
  <line x1="82" y1="28" x2="70" y2="15" stroke="#dc2626" stroke-width="4" stroke-linecap="round"/>
  <line x1="98" y1="28" x2="110" y2="15" stroke="#dc2626" stroke-width="4" stroke-linecap="round"/>
  <circle cx="70" cy="15" r="3" fill="#dc2626"/>
  <circle cx="110" cy="15" r="3" fill="#dc2626"/>
  
  <!-- Bug legs -->
  <line x1="45" y1="85" x2="20" y2="75" stroke="#dc2626" stroke-width="4" stroke-linecap="round"/>
  <line x1="45" y1="105" x2="20" y2="105" stroke="#dc2626" stroke-width="4" stroke-linecap="round"/>
  <line x1="45" y1="125" x2="20" y2="135" stroke="#dc2626" stroke-width="4" stroke-linecap="round"/>
  
  <line x1="135" y1="85" x2="160" y2="75" stroke="#dc2626" stroke-width="4" stroke-linecap="round"/>
  <line x1="135" y1="105" x2="160" y2="105" stroke="#dc2626" stroke-width="4" stroke-linecap="round"/>
  <line x1="135" y1="125" x2="160" y2="135" stroke="#dc2626" stroke-width="4" stroke-linecap="round"/>
  
  <!-- Bug body segments -->
  <line x1="55" y1="85" x2="125" y2="85" stroke="#dc2626" stroke-width="2" opacity="0.6"/>
  <line x1="55" y1="105" x2="125" y2="105" stroke="#dc2626" stroke-width="2" opacity="0.6"/>
  <line x1="55" y1="125" x2="125" y2="125" stroke="#dc2626" stroke-width="2" opacity="0.6"/>
</svg> 