<svg width="32" height="32" viewBox="0 0 32 32" fill="none" xmlns="http://www.w3.org/2000/svg">
  <!-- Bug body -->
  <ellipse cx="16" cy="18" rx="8" ry="10" fill="#ef4444" stroke="#dc2626" stroke-width="1"/>
  
  <!-- Bug head -->
  <circle cx="16" cy="8" r="4" fill="#ef4444" stroke="#dc2626" stroke-width="1"/>
  
  <!-- Bug eyes -->
  <circle cx="14" cy="7" r="1" fill="#ffffff"/>
  <circle cx="18" cy="7" r="1" fill="#ffffff"/>
  
  <!-- Bug antennae -->
  <line x1="14" y1="4" x2="12" y2="2" stroke="#dc2626" stroke-width="1.5" stroke-linecap="round"/>
  <line x1="18" y1="4" x2="20" y2="2" stroke="#dc2626" stroke-width="1.5" stroke-linecap="round"/>
  <circle cx="12" cy="2" r="0.5" fill="#dc2626"/>
  <circle cx="20" cy="2" r="0.5" fill="#dc2626"/>
  
  <!-- Bug legs -->
  <line x1="8" y1="14" x2="4" y2="12" stroke="#dc2626" stroke-width="1.5" stroke-linecap="round"/>
  <line x1="8" y1="18" x2="4" y2="18" stroke="#dc2626" stroke-width="1.5" stroke-linecap="round"/>
  <line x1="8" y1="22" x2="4" y2="24" stroke="#dc2626" stroke-width="1.5" stroke-linecap="round"/>
  
  <line x1="24" y1="14" x2="28" y2="12" stroke="#dc2626" stroke-width="1.5" stroke-linecap="round"/>
  <line x1="24" y1="18" x2="28" y2="18" stroke="#dc2626" stroke-width="1.5" stroke-linecap="round"/>
  <line x1="24" y1="22" x2="28" y2="24" stroke="#dc2626" stroke-width="1.5" stroke-linecap="round"/>
  
  <!-- Bug body segments -->
  <line x1="10" y1="15" x2="22" y2="15" stroke="#dc2626" stroke-width="0.5" opacity="0.6"/>
  <line x1="10" y1="19" x2="22" y2="19" stroke="#dc2626" stroke-width="0.5" opacity="0.6"/>
  <line x1="10" y1="23" x2="22" y2="23" stroke="#dc2626" stroke-width="0.5" opacity="0.6"/>
</svg> 